<svg width="192" height="129" viewBox="0 0 192 129" fill="none" xmlns="http://www.w3.org/2000/svg">
<path d="M58.7139 27.8633H3.15941C78.5052 -18.4899 150.871 3.4859 177.635 20.268C118.261 -0.391347 73.6152 16.7235 58.7139 27.8633Z" fill="white"/>
<path d="M135.548 100.327H191.102C115.756 146.68 43.391 124.705 16.6265 107.922C76.0003 128.582 120.646 111.467 135.548 100.327Z" fill="white"/>
<path d="M13.0866 40.8126L13.482 39.4826H37.2785L36.8112 40.8126C34.6544 40.8126 33.0009 41.2919 31.8506 42.2504C30.7243 43.209 29.7298 45.21 28.8671 48.2535L19.9524 79.4549C19.3053 81.6596 18.9818 83.1334 18.9818 83.8763C18.9818 84.739 19.3173 85.41 19.9883 85.8893C20.851 86.5123 22.4806 86.8478 24.877 86.8957L24.5175 88.2258H0.325684L0.721093 86.8957C3.14148 86.8957 4.91483 86.4404 6.04115 85.5298C7.16746 84.5952 8.18594 82.5702 9.09658 79.4549L18.0832 48.2535C18.6343 46.3363 18.9099 44.8865 18.9099 43.904C18.9099 43.0173 18.5744 42.3223 17.9034 41.8191C17.2324 41.3158 15.6268 40.9803 13.0866 40.8126Z" fill="white"/>
<path d="M68.1564 88.2258H29.2265L29.6219 86.8957C31.9464 86.8957 33.6359 86.4524 34.6904 85.5657C35.7687 84.6551 36.7633 82.6301 37.6739 79.4908L46.7324 48.1816C47.2356 46.4562 47.4872 45.1022 47.4872 44.1196C47.4872 43.1611 47.1278 42.3942 46.4088 41.8191C45.6899 41.2439 44.276 40.9084 42.1672 40.8126L42.5626 39.4826H65.9636L65.5682 40.8126C63.3156 40.8605 61.6261 41.3638 60.4998 42.3223C59.3974 43.2809 58.4149 45.234 57.5522 48.1816L49.2845 76.8308C48.2301 80.4733 47.7029 82.69 47.7029 83.4809C47.7029 83.9601 47.9665 84.4155 48.4937 84.8468C49.0449 85.2542 49.9196 85.4579 51.1178 85.4579C55.0959 85.4579 58.9301 84.5473 62.6206 82.726C66.3351 80.9047 69.4744 78.1848 72.0386 74.5662H73.5483L68.1564 88.2258Z" fill="white"/>
<path d="M104.462 39.4826L108.057 72.9845L131.242 39.4826H148.317L147.885 40.8126C145.537 40.8126 143.751 41.3158 142.529 42.3223C141.307 43.3288 140.265 45.3179 139.402 48.2894L130.415 79.4908C129.84 81.4559 129.553 82.9177 129.553 83.8763C129.553 84.7629 129.912 85.4819 130.631 86.033C131.35 86.5603 132.764 86.8478 134.873 86.8957L134.549 88.2258H110.214L110.645 86.8957C113.257 86.8957 115.186 86.4045 116.432 85.422C117.678 84.4155 118.733 82.4384 119.596 79.4908L128.762 47.894L100.867 88.2258H99.3937L95.0082 47.1032L85.6982 79.4908C85.3147 80.8088 85.123 81.9112 85.123 82.7979C85.123 83.9961 85.5304 84.9666 86.3452 85.7095C87.1839 86.4285 88.5978 86.8239 90.5868 86.8957L90.2274 88.2258H74.1234L74.447 86.8957C76.3881 86.8239 77.8738 86.4165 78.9043 85.6736C80.7256 84.3316 82.0436 82.2707 82.8584 79.4908L93.3907 43.4726C92.3842 42.3703 91.4735 41.6513 90.6587 41.3158C89.8679 40.9803 88.5259 40.8126 86.6328 40.8126L87.0641 39.4826H104.462Z" fill="white"/>
<path d="M171.933 72.5172H156.836L153.816 76.2556L150.366 80.3895C149.695 81.2762 149.203 82.0789 148.892 82.7979C148.652 83.349 148.532 83.9002 148.532 84.4514C148.532 85.0265 148.832 85.5657 149.431 86.069C150.054 86.5483 151.073 86.8239 152.486 86.8957V88.2258H137.928L138.288 86.8957C139.582 86.6801 140.732 86.2248 141.738 85.5298C143.08 84.5712 145.01 82.5942 147.526 79.5987L182.07 38.3682H183.688L182.07 78.2686C181.998 80.3535 181.962 81.6116 181.962 82.043C181.962 83.6726 182.286 84.8588 182.933 85.6017C183.604 86.3446 184.706 86.7759 186.24 86.8957L185.881 88.2258H164.78L165.175 86.8957C167.26 86.704 168.459 86.5363 168.77 86.3925C169.441 86.057 170.052 85.362 170.603 84.3076C171.155 83.2292 171.49 81.372 171.61 78.7359L171.933 72.5172ZM171.933 69.5696L172.868 53.6814L159.316 69.5696H171.933Z" fill="white"/>
</svg>
