<svg width="76" height="75" viewBox="0 0 76 75" fill="none" xmlns="http://www.w3.org/2000/svg">
<g clip-path="url(#clip0_522_71)">
<path d="M74.4794 0H0.618443C0.276886 0 0 0.27689 0 0.618447V73.9087C0 74.2502 0.27689 74.5271 0.618447 74.5271H74.4794C74.821 74.5271 75.0979 74.2502 75.0979 73.9087V0.618443C75.0979 0.276887 74.821 0 74.4794 0Z" fill="#FF1C27"/>
<path fill-rule="evenodd" clip-rule="evenodd" d="M20.1698 51.876C20.1698 51.951 21.0924 54.4304 22.2197 57.3853C23.3473 60.3402 24.2718 62.8842 24.274 63.0381C24.2766 63.192 18.8158 63.3182 12.1392 63.3182C0.249135 63.3182 0 63.3335 0 64.0653C0 64.7981 0.249135 64.8123 13.2598 64.8123C21.0125 64.8123 26.5196 64.6707 26.5196 64.4713C26.5196 64.202 24.5609 58.9302 22.5868 53.887C22.3478 53.2763 22.8778 53.2333 30.6283 53.2333C37.1099 53.2333 38.8874 53.3357 38.7511 53.7002C38.6555 53.9572 37.6937 56.487 36.6142 59.3224C35.5347 62.1581 34.7295 64.5561 34.8251 64.6513C34.9203 64.7466 39.454 64.7798 44.8999 64.7253L54.8014 64.6255L52.6533 58.9294L50.5052 53.2333H58.8522H67.1991L66.2504 55.7545C65.7286 57.1414 64.7511 59.7045 64.0784 61.4507L62.8555 64.6255L68.4833 64.729C71.579 64.7861 74.3284 64.7492 74.594 64.6476C74.8596 64.5456 75.0769 64.1628 75.0773 63.7967C75.0777 63.1868 74.6732 63.1408 70.2216 63.2458C66.4103 63.335 65.3689 63.2547 65.3827 62.8723C65.3924 62.6041 66.2911 60.0313 67.3803 57.1552L69.3603 51.926L63.9783 51.8226C61.0182 51.7658 56.2798 51.7658 53.4482 51.8226L48.3004 51.926L50.4365 57.5287L52.5727 63.1315L44.9077 63.2327C40.6919 63.2883 37.176 63.2671 37.0942 63.1856C37.0127 63.1038 37.8778 60.555 39.0163 57.5213C40.1551 54.4876 41.0867 51.9454 41.0867 51.8722C41.0867 51.799 36.3804 51.7393 30.6283 51.7393C24.8761 51.7393 20.1698 51.8009 20.1698 51.876ZM0.0590154 64.0653C0.0590154 64.5788 0.143803 64.7891 0.247267 64.5322C0.351104 64.2756 0.351104 63.8553 0.247267 63.5984C0.143803 63.3418 0.0590154 63.5517 0.0590154 64.0653Z" fill="#F9E8E6"/>
<path d="M5.17395 6.81511C5.17395 6.50764 5.29183 6.24117 5.52756 6.01568C5.76328 5.77995 6.05537 5.66211 6.40386 5.66211C6.75231 5.66211 7.0444 5.77995 7.28013 6.01568C7.51585 6.24117 7.63373 6.50764 7.63373 6.81511C7.63373 7.12259 7.51585 7.39417 7.28013 7.6299C7.0444 7.85539 6.75231 7.96812 6.40386 7.96812C6.05537 7.96812 5.76328 7.85539 5.52756 7.6299C5.29183 7.39417 5.17395 7.12259 5.17395 6.81511ZM5.32769 8.96738H7.48V16.8078H5.32769V8.96738ZM9.17105 8.96738H11.3234V10.0435H11.4002C11.5437 9.79756 11.7333 9.58234 11.969 9.39786C12.174 9.23385 12.4251 9.08527 12.7223 8.95199C13.0298 8.80853 13.409 8.73678 13.86 8.73678C14.8234 8.73678 15.5766 9.01863 16.1199 9.58234C16.6631 10.1358 16.9346 10.9557 16.9346 12.0421V16.8078H14.7824V12.3495C14.7824 11.7653 14.6389 11.3246 14.3519 11.0274C14.065 10.7302 13.6703 10.5816 13.1681 10.5816C12.9222 10.5816 12.6865 10.6329 12.461 10.7353C12.2355 10.8378 12.0357 10.9813 11.8614 11.1658C11.6974 11.34 11.5642 11.5552 11.4617 11.8115C11.3694 12.0677 11.3234 12.3495 11.3234 12.657V16.8078H9.17105V8.96738ZM17.9393 8.96738H18.9386V7.27629H21.0909V8.96738H23.3046V10.8122H21.0909V14.963H23.3969V16.8078H18.9386V10.8122H17.9393V8.96738ZM24.1583 12.8876C24.1583 12.3137 24.266 11.7756 24.4812 11.2734C24.6964 10.761 24.9936 10.3203 25.3729 9.9513C25.7521 9.57207 26.1979 9.27486 26.7104 9.05964C27.2331 8.84439 27.7916 8.73678 28.3861 8.73678C29.001 8.73678 29.5596 8.84439 30.0618 9.05964C30.5742 9.27486 31.0149 9.57207 31.3839 9.9513C31.7529 10.3305 32.0347 10.7712 32.2294 11.2734C32.4344 11.7756 32.5369 12.3137 32.5369 12.8876V13.3488H26.3875C26.4285 13.5948 26.5054 13.8305 26.6181 14.056C26.7411 14.2815 26.8897 14.4813 27.064 14.6556C27.2484 14.8195 27.4534 14.9528 27.6789 15.0553C27.9044 15.1475 28.1401 15.1936 28.3861 15.1936C28.7345 15.1936 29.0164 15.1475 29.2316 15.0553C29.4571 14.9528 29.6416 14.8452 29.7851 14.7324C29.9388 14.5992 30.0618 14.4455 30.154 14.2712H32.46C32.2961 14.7837 32.0398 15.2449 31.6914 15.6548C31.5376 15.8291 31.3583 15.9982 31.1533 16.1621C30.9483 16.3262 30.7126 16.4747 30.4461 16.608C30.1796 16.7412 29.8722 16.8437 29.5237 16.9155C29.1855 16.9974 28.8063 17.0385 28.3861 17.0385C27.7916 17.0385 27.2331 16.9308 26.7104 16.7156C26.1979 16.5004 25.7521 16.2083 25.3729 15.8393C24.9936 15.4601 24.6964 15.0194 24.4812 14.5172C24.266 14.0048 24.1583 13.4616 24.1583 12.8876ZM30.2309 12.0421C30.1899 11.8473 30.1181 11.6629 30.0157 11.4886C29.9132 11.3144 29.7799 11.1607 29.6159 11.0274C29.4622 10.8942 29.2777 10.7866 29.0625 10.7046C28.8575 10.6226 28.6321 10.5816 28.3861 10.5816C27.8839 10.5816 27.4637 10.7302 27.1254 11.0274C26.7975 11.3144 26.5771 11.6526 26.4644 12.0421H30.2309ZM33.8376 8.96738H35.9899V10.1204H36.0668C36.159 9.87443 36.2974 9.65921 36.4818 9.47469C36.6356 9.31072 36.8406 9.16213 37.0968 9.02886C37.353 8.8854 37.6757 8.81364 38.0653 8.81364H38.9879V10.8891H37.8348C37.2505 10.8891 36.7944 11.0479 36.4665 11.3657C36.1488 11.6834 35.9899 12.1138 35.9899 12.657V16.8078H33.8376V8.96738ZM39.6068 14.963L43.5272 10.966V10.8122H39.7607V8.96738H46.3712V10.8122L42.4511 14.8093V14.963H46.525V16.8078H39.6068V14.963ZM47.7547 8.96738H49.9072V13.4257C49.9072 14.0099 50.0507 14.4506 50.3375 14.7478C50.6244 15.045 51.0192 15.1936 51.5212 15.1936C51.7673 15.1936 52.003 15.1424 52.2286 15.0399C52.4539 14.9374 52.6488 14.799 52.8128 14.6248C52.9869 14.4403 53.1202 14.22 53.2125 13.9637C53.3148 13.7075 53.366 13.4257 53.366 13.1182V8.96738H55.5185V16.8078H53.366V15.7317H53.2894C53.1456 15.9879 52.9562 16.2083 52.7205 16.3928C52.5155 16.5567 52.2593 16.7053 51.9518 16.8386C51.6444 16.9718 51.2702 17.0385 50.8294 17.0385C49.8661 17.0385 49.1128 16.7617 48.5697 16.2083C48.0266 15.6446 47.7547 14.8195 47.7547 13.7331V8.96738ZM57.2132 8.96738H59.3654V10.0435H59.4423C59.5753 9.79756 59.7497 9.58234 59.9649 9.39786C60.1494 9.23385 60.3851 9.08527 60.6719 8.95199C60.9592 8.80853 61.3177 8.73678 61.7484 8.73678C62.2504 8.73678 62.6654 8.81364 62.9933 8.96738C63.3317 9.12112 63.6033 9.29021 63.8083 9.47469C64.044 9.68995 64.2285 9.93079 64.3619 10.1973H64.4385C64.5718 9.93079 64.7563 9.68995 64.992 9.47469C65.1971 9.29021 65.4533 9.12112 65.7607 8.96738C66.0786 8.81364 66.4831 8.73678 66.9754 8.73678C67.908 8.73678 68.6405 9.01863 69.1735 9.58234C69.7065 10.1358 69.9732 10.9557 69.9732 12.0421V16.8078H67.8206V12.2727C67.8206 11.6885 67.6925 11.2632 67.4363 10.9967C67.1801 10.72 66.8215 10.5816 66.3602 10.5816C65.8989 10.5816 65.4992 10.761 65.1612 11.1197C64.8333 11.4784 64.6693 11.9652 64.6693 12.5801V16.8078H62.5167V12.2727C62.5167 11.6885 62.3886 11.2632 62.1328 10.9967C61.8765 10.72 61.5176 10.5816 61.0563 10.5816C60.5954 10.5816 60.1957 10.761 59.8573 11.1197C59.5294 11.4784 59.3654 11.9652 59.3654 12.5801V16.8078H57.2132V8.96738Z" fill="white"/>
</g>
<defs>
<clipPath id="clip0_522_71">
<rect width="75.4501" height="74.703" fill="white"/>
</clipPath>
</defs>
</svg>
